<svg xmlns="http://www.w3.org/2000/svg" xml:space="preserve" width="720.757" height="721.008" viewBox="0 0 190.7 190.767">
    <path d="M88.565 190.504c-33.37-2.508-63.046-22.185-78.167-51.83-16.048-31.463-13.367-69.2 6.983-98.268C36.221 13.496 69.553-2.303 102.058.273c34.285 2.716 63.57 22.347 78.784 52.81 11.14 22.301 12.924 48.682 4.917 72.67-13.695 41.023-54.165 67.985-97.194 64.751" style="display:inline;fill:#fecb5e;fill-opacity:1"/>
    <path d="M88.962 190.52C33.248 186.45-7.187 136.11 1.13 81.17c3.226-21.307 14.66-42.997 28.962-54.94C56.631 4.063 93.733-2.58 126.4 8.98c45.514 16.107 70.323 63.322 58.48 111.293-3.478 14.083-10.925 28.956-19.628 39.2-1.15 1.353-1.438 1.891-.818 1.53.182-.107.106.061-.168.374s-.593.51-.709.438-.606.36-1.089.96c-3.901 4.844-13.796 12.237-22.706 16.965-15.068 7.996-33.975 12.008-50.8 10.78m75.009-29.09c.09-.147.104-.266.031-.266s-.206.12-.296.265-.104.264-.03.264c.072 0 .205-.119.295-.264m3.043-3.308c0-.072.06-.132.132-.132s.132.06.132.132-.06.133-.132.133a.133.133 0 0 1-.132-.133m1.587-1.852a.133.133 0 0 1 .265 0c0 .072-.06.133-.133.133a.133.133 0 0 1-.132-.133m2.117-2.646c0-.072.06-.132.132-.132s.132.06.132.132-.06.133-.132.133a.133.133 0 0 1-.132-.133m2.91-3.968a.133.133 0 1 1 .265 0c0 .072-.06.132-.132.132a.133.133 0 0 1-.133-.132m2.117-3.175c0-.073.06-.133.132-.133s.132.06.132.133a.133.133 0 0 1-.132.132.133.133 0 0 1-.132-.132m2.381-3.97a.133.133 0 0 1 .265.001c0 .072-.06.132-.133.132a.133.133 0 0 1-.132-.132" style="display:inline;fill:#fdbf41;fill-opacity:1"/>
    <path d="M92.004 187.07C52.048 185.35 17.418 157.02 7.62 118.035 4.36 105.06 3.992 91.104 6.561 77.82c2.769-14.31 9.266-28.178 18.723-39.963 8.02-9.995 18.507-16.224 31.143-18.5 11.238-2.023 29.067-1.068 41.663 2.232 31.798 8.332 61.007 37.208 72.596 71.768 9.41 28.064 1.195 60.232-19.283 75.503-17.42 12.99-37.514 19.15-59.399 18.21" style="display:inline;fill:#f4993c;fill-opacity:1"/>
    <path d="M91.475 183.225c-22.672-1.063-42.297-9.67-58.09-25.482-14.193-14.21-22.037-30.448-24.866-51.48-1.678-12.47.445-28.433 5.49-41.275 7.396-18.83 17.172-24.645 33.54-19.953 5.689 1.63 16.668 5.964 22.134 8.737 12.97 6.578 32.227 22.476 45.474 37.542 14.256 16.214 22.84 31.955 27.523 50.474 4.224 16.703.13 27.708-12.576 33.798-10.832 5.192-26.158 8.223-38.629 7.64" style="display:inline;fill:#ef7538;fill-opacity:1"/>
</svg>
